<svg id="Layer_1" data-name="Layer 1" xmlns="http://www.w3.org/2000/svg" xmlns:xlink="http://www.w3.org/1999/xlink"
    viewBox="0 0 722.83 722.83">
    <defs>
        <style>
            .cls-1 {
                fill: #fff;
            }

            .cls-2 {
                fill: url(#Orange_Yellow);
            }

            .cls-3 {
                fill: #e93f39;
            }
        </style>
        <linearGradient id="Orange_Yellow" x1="414.63" y1="722.83" x2="414.63" gradientUnits="userSpaceOnUse">
            <stop offset="0" stop-color="#fff33b" />
            <stop offset="0.04" stop-color="#fee72e" />
            <stop offset="0.12" stop-color="#fed51b" />
            <stop offset="0.2" stop-color="#fdca10" />
            <stop offset="0.28" stop-color="#fdc70c" />
            <stop offset="0.67" stop-color="#f3903f" />
            <stop offset="0.89" stop-color="#ed683c" />
            <stop offset="1" stop-color="#e93e3a" />
        </linearGradient>
    </defs>
    <title>Full</title>
    <path class="cls-1"
        d="M64.34,689.73v12.82H60.51V673.46H71.88c6,0,9.16,3.24,9.16,7.78a6.64,6.64,0,0,1-5,6.84c2.38.64,4.44,2.41,4.44,7.46v1.25c0,2-.09,4.54.39,5.76H77.16c-.53-1.26-.49-3.53-.49-6.26v-.62c0-4.14-1.17-5.94-6.39-5.94Zm0-3.24h6.32c4.45,0,6.4-1.67,6.4-4.94,0-3.09-2-4.85-6-4.85H64.34Z" />
    <path class="cls-1"
        d="M109.82,692.61c0,4.31,2.2,7.38,5.8,7.38,3.35,0,4.44-1.73,5.12-3.28h3.68c-.83,2.71-3.1,6.34-8.91,6.34-6.67,0-9.39-5.42-9.39-10.88,0-6.3,3.18-11.33,9.62-11.33,6.84,0,9.08,5.49,9.08,10,0,.65,0,1.19,0,1.76ZM121.11,690c0-3.49-1.8-6.29-5.42-6.29s-5.37,2.6-5.74,6.29Z" />
    <path class="cls-1"
        d="M152.52,696.48c.61,2.32,2.32,3.68,5.2,3.68,3.11,0,4.34-1.34,4.34-3.27s-1-2.9-5-3.88c-6.06-1.48-7.33-3.33-7.33-6.21s2.21-6,7.66-6,7.7,3.17,8,6.12h-3.54c-.31-1.37-1.34-3.27-4.6-3.27-3,0-3.86,1.42-3.86,2.81,0,1.59.88,2.37,4.76,3.3,6.43,1.53,7.72,3.67,7.72,6.82,0,3.72-3,6.43-8.23,6.43-5.49,0-8.18-2.78-8.72-6.57Z" />
    <path class="cls-1" d="M191.42,671.85h3.66v4.58h-3.66Zm0,9.5h3.66v21.2h-3.66Z" />
    <path class="cls-1"
        d="M239.89,671.85v24.71c0,2,0,3.94,0,6h-3.52a28.67,28.67,0,0,1-.18-3c-1,2.21-3.2,3.51-6.67,3.51-5.45,0-8.8-4.42-8.8-10.88s3.61-11.33,9.47-11.33c3.76,0,5.43,1.52,6,2.71v-11.7Zm-15.33,20.2c0,5.12,2.43,7.89,5.76,7.89,5,0,6.05-3.65,6.05-8.3s-1-7.69-5.76-7.69C226.87,684,224.56,686.91,224.56,692.05Z" />
    <path class="cls-1"
        d="M269.21,692.61c0,4.31,2.2,7.38,5.8,7.38,3.35,0,4.44-1.73,5.12-3.28h3.68c-.83,2.71-3.1,6.34-8.91,6.34-6.67,0-9.39-5.42-9.39-10.88,0-6.3,3.18-11.33,9.62-11.33,6.84,0,9.08,5.49,9.08,10,0,.65,0,1.19,0,1.76ZM280.5,690c0-3.49-1.8-6.29-5.42-6.29s-5.37,2.6-5.74,6.29Z" />
    <path class="cls-1"
        d="M309.86,686.69c0-1.84,0-3.7,0-5.34h3.56c.09.62.15,2.85.14,3.48.84-1.82,2.57-4,6.67-4s7.08,2.43,7.08,8.07v13.64h-3.66V689.38c0-3.2-1.25-5.36-4.48-5.36-4,0-5.61,3-5.61,7.3v11.23h-3.66Z" />
    <path class="cls-1"
        d="M371.15,696.06c-.9,3.65-3.37,7-8.77,7-5.83,0-9.45-4.2-9.45-11,0-6,3.39-11.22,9.72-11.22,6.11,0,8.22,4.36,8.5,7.09h-3.63c-.53-2.16-1.88-4-4.94-4-3.75,0-5.88,3.22-5.88,8s2.06,8.07,5.74,8.07c2.65,0,4.2-1.41,5.06-3.94Z" />
    <path class="cls-1"
        d="M398.87,692.61c0,4.31,2.2,7.38,5.79,7.38,3.36,0,4.44-1.73,5.12-3.28h3.69c-.83,2.71-3.11,6.34-8.92,6.34-6.66,0-9.38-5.42-9.38-10.88,0-6.3,3.17-11.33,9.62-11.33,6.84,0,9.08,5.49,9.08,10a16.48,16.48,0,0,1-.06,1.76ZM410.15,690c0-3.49-1.79-6.29-5.42-6.29s-5.36,2.6-5.74,6.29Z" />
    <path class="cls-2"
        d="M414.63,0C269.07,0,151.07,118,151.07,263.55c0,136.66,104,249,237.2,262.25V289.59c-4.3.42-6.3,3.92-8.81,6.41-29.24,29.12-58.64,58.08-87.41,87.66-9.84,10.12-14.18,8.52-17.19-4.57-6.46-28-6.56-55.62,5.78-82.15,5-10.71,11.4-20.74,18.53-33.52-31,0-60-.11-88.89.06-9.81.06-12.51-2.42-7.12-12,9.13-16.22,22.07-29.09,34.61-42.4,28.31-18.82,59.42-27.57,94.9-26a817.3,817.3,0,0,0-59.86-60.89c-10.32-9.5-6.84-13.21,4.35-16,49.85-12.43,93-1.53,127.26,37.72,7.14,8.18,9.6,8.84,17.11.26,33.64-38.48,76.07-50.24,125.5-38.51,12.93,3.07,16.94,7,5,17.81-21.48,19.52-42,40.08-63,60.21,43.56-4,78.8,8.44,109.57,35.41,7.52,10,16,19.32,22.14,30.42S625,264,612,263.65c-27.75-.73-55.53-.23-82.89-.23-.46,2.62-.82,3.34-.6,3.68,2.79,4.32,5.85,8.48,8.49,12.9,19.11,32,25.31,65.6,13.81,101.87-3.77,11.91-7.34,15.4-17.41,4.62-27.55-29.48-55.72-58.37-83.84-87.31-2.61-2.69-4.69-6.48-8.58-8V722.83C614.13,469,678.18,400.21,678.18,263.55,678.18,118,560.18,0,414.63,0Z" />
    <path class="cls-3"
        d="M120.88,638.73q-8.59,11.79-27.8,11.79T65.27,638.73q-8.59-11.79-8.59-36.79V586.63q0-25,8.59-36.78t27.81-11.79q19.2,0,27.8,11.79t8.59,36.78v15.31Q129.47,626.93,120.88,638.73Zm-14.68-94a39.21,39.21,0,0,0-13.12-2,39.23,39.23,0,0,0-13.13,2,25,25,0,0,0-9.84,6.64q-4.36,4.7-6.56,13.51a92.19,92.19,0,0,0-2.18,21.79v15.31a92.07,92.07,0,0,0,2.18,21.79q2.19,8.84,6.56,13.51A24.81,24.81,0,0,0,80,643.88a39.23,39.23,0,0,0,13.13,2,39.21,39.21,0,0,0,13.12-2,24.81,24.81,0,0,0,9.84-6.64q4.36-4.68,6.56-13.51a92.6,92.6,0,0,0,2.18-21.79V586.63a92.72,92.72,0,0,0-2.18-21.79Q120.41,556,116,551.33A25,25,0,0,0,106.2,544.69Z" />
    <path class="cls-3" d="M164.61,644.27h50.92l-32-75.44-34,80.13h-5l39-92.16L222.56,649H164.61Z" />
    <path class="cls-3"
        d="M264.27,556.49q19.37,0,27.49,8.59l-3.13,3.44q-7.49-7.35-23.74-7.35-24.36,0-24.36,19.37a14.17,14.17,0,0,0,5.93,12,42.81,42.81,0,0,0,14.48,6.81q8.55,2.34,17,4.92a35.25,35.25,0,0,1,14.41,8.26q5.94,5.71,5.94,14.92a20.11,20.11,0,0,1-8.9,17.18q-8.91,6.4-25.78,6.41a61.83,61.83,0,0,1-16.32-2.19q-8-2.19-11.95-6.4l3.12-3.44q8,7.35,24.53,7.34,15.15,0,22.88-5.62t7.73-13.12a15.56,15.56,0,0,0-5.93-12.65,39.86,39.86,0,0,0-14.51-7.28q-8.58-2.45-17-5a36.52,36.52,0,0,1-14.4-8q-5.93-5.46-5.93-14.37,0-12,8-17.88T264.27,556.49Z" />
    <path class="cls-3" d="M321.12,558.36h4.69V649h-4.69Z" />
    <path class="cls-3"
        d="M379.38,556.49q19.38,0,27.5,8.59l-3.13,3.44q-7.5-7.35-23.74-7.35-24.37,0-24.37,19.37a14.18,14.18,0,0,0,5.94,12,42.71,42.71,0,0,0,14.48,6.81q8.54,2.34,17,4.92a35.22,35.22,0,0,1,14.42,8.26q5.94,5.71,5.94,14.92a20.09,20.09,0,0,1-8.91,17.18q-8.89,6.4-25.77,6.41a61.83,61.83,0,0,1-16.32-2.19q-8.06-2.19-11.95-6.4l3.12-3.44q8,7.35,24.52,7.34,15.15,0,22.89-5.62t7.73-13.12a15.54,15.54,0,0,0-5.94-12.65,39.73,39.73,0,0,0-14.5-7.28q-8.58-2.45-17-5a36.47,36.47,0,0,1-14.39-8Q351,589.14,351,580.23q0-12,8-17.88T379.38,556.49Z" />
</svg>